# xmcd
#
# Track frame offsets:
#	150
#	23522
#	47435
#	74852
#	94607
#	112387
#	128742
#	156695
#	185615
#	209435
#
# Disc length: 3100 seconds
#
# Revision: 2
# Processed by: cddbd v1.5.2PL0 Copyright (c) Steve Scherf et al.
# Submitted via: EZCDAudioConverter 8.0.2.1
#
DISCID=950c1a0a
DTITLE=Chế Linh - Đêm Hoang
DYEAR=1993
DGENRE=Soul
TTITLE0=Tiếng ca đó về đâu
TTITLE1=Nỗi buồn sa mạc
TTITLE2=Đêm Hoang
TTITLE3=Chắp tay lạy người
TTITLE4=Chuyện mưa mây
TTITLE5=Trao người ở lại
TTITLE6=Tìm quên
TTITLE7=Túy ca
TTITLE8=Em sắp về chưa
TTITLE9=Có thế thôi
EXTD=
EXTT0=
EXTT1=
EXTT2=
EXTT3=
EXTT4=
EXTT5=
EXTT6=
EXTT7=
EXTT8=
EXTT9=
PLAYORDER=
